<svg viewBox="0 0 48 48" fill="none" xmlns="http://www.w3.org/2000/svg">
<path d="M34.2609 13.1686C33.464 9.69151 32.385 8.00134 30.962 8.00134C30.6882 8.00134 30.4274 8.06456 30.1786 8.19036L0.494785 20.6581C0.194991 20.7839 0 21.0772 0 21.4024V27.2153C0 27.5403 0.194991 27.8337 0.494704 27.9596L4.84918 29.7889C4.85176 29.79 4.85443 29.7911 4.85701 29.7922L6.9433 30.6685V35.7338C6.9433 37.0026 7.9755 38.0348 9.24427 38.0348H16.5912C17.86 38.0348 18.8922 37.0026 18.8922 35.7338V35.6881L30.1798 40.4298C30.4283 40.5552 30.6888 40.6183 30.9621 40.6183C32.3851 40.6183 33.4641 38.9281 34.2609 35.4511C34.9451 32.4659 35.3218 28.5092 35.3218 24.3098C35.3218 20.1104 34.945 16.1537 34.2609 13.1686ZM17.2774 35.7339C17.2774 36.1123 16.9695 36.4201 16.5911 36.4201H9.24419C8.86575 36.4201 8.55797 36.1123 8.55797 35.7339V31.3469L17.2774 35.0098V35.7339ZM5.9744 28.5102V24.297C5.9744 23.8511 5.61283 23.4897 5.16706 23.4897C4.72121 23.4897 4.35972 23.8512 4.35972 24.297V27.8319L1.61475 26.6787V21.939L28.3903 10.6928C28.1255 11.383 27.8836 12.2072 27.6632 13.1686C27.6382 13.2776 27.6138 13.3883 27.5896 13.4999L18.4353 16.9454C18.018 17.1025 17.8071 17.5681 17.964 17.9854C18.0859 18.3091 18.3933 18.5085 18.7198 18.5085C18.8143 18.5085 18.9103 18.4917 19.0041 18.4565L27.2439 15.3551C26.8269 17.9721 26.6023 21.0684 26.6023 24.3098C26.6023 28.5092 26.9791 32.4659 27.6632 35.4511C27.8836 36.4124 28.1256 37.2364 28.3903 37.9267L5.9744 28.5102ZM28.2827 21.3363C29.7102 21.5794 30.8006 22.8245 30.8006 24.3201C30.8006 25.8155 29.7106 27.0602 28.2836 27.3038C28.2395 26.3288 28.217 25.3272 28.217 24.3099C28.217 23.2996 28.2393 22.3049 28.2827 21.3363ZM32.6869 35.0906C31.9497 38.3074 31.1263 39.0037 30.962 39.0037C30.9553 39.0037 30.9472 39.0021 30.9384 38.9997C30.9253 38.9933 30.9126 38.9864 30.899 38.9807L30.8798 38.9726C30.6088 38.8093 29.8894 37.9369 29.2371 35.0905C28.8355 33.3381 28.5443 31.228 28.3782 28.9217C30.6529 28.624 32.4153 26.6746 32.4153 24.3201C32.4153 21.965 30.6521 20.0154 28.3767 19.7183C28.5426 17.404 28.8344 15.2867 29.2371 13.5292C29.889 10.6844 30.6081 9.81133 30.8794 9.64734L30.9507 9.61739C30.9546 9.61682 30.9587 9.61601 30.9621 9.61601C31.1264 9.61601 31.9498 10.3123 32.687 13.5292C33.3447 16.3995 33.707 20.2282 33.707 24.3099C33.707 28.3915 33.3448 32.2201 32.6869 35.0906Z" fill="#00A76A"/>
<path fill-rule="evenodd" clip-rule="evenodd" d="M39.0001 24.9375C39.0001 25.4553 39.4197 25.875 39.9376 25.875H46.1251C46.6429 25.875 47.0626 25.4553 47.0626 24.9375C47.0626 24.4197 46.6429 24 46.1251 24H39.9376C39.4197 24 39.0001 24.4197 39.0001 24.9375Z" fill="#94EB54"/>
<path fill-rule="evenodd" clip-rule="evenodd" d="M36.2747 16.2524C35.9085 16.6187 35.9085 17.2119 36.2747 17.5785C36.6406 17.9443 37.2342 17.9443 37.6004 17.5785L41.5782 13.6003C41.9444 13.2345 41.9444 12.6409 41.5782 12.2747C41.212 11.9084 40.6183 11.9084 40.2525 12.2747L36.2747 16.2524Z" fill="#94EB54"/>
<path fill-rule="evenodd" clip-rule="evenodd" d="M36.2747 33.6003L40.2525 37.5781C40.6183 37.9443 41.212 37.9443 41.5782 37.5781C41.9444 37.2119 41.9444 36.6187 41.5782 36.2524L37.6004 32.2747C37.2342 31.9084 36.6406 31.9084 36.2747 32.2747C35.9085 32.6409 35.9085 33.2341 36.2747 33.6003Z" fill="#94EB54"/>
</svg>
