<svg width="10" height="18" viewBox="0 0 10 18" fill="none" xmlns="http://www.w3.org/2000/svg">
<path d="M9.21109 0.00366734L6.92542 0C4.35754 0 2.69807 1.70256 2.69807 4.33774V6.33772H0.399927C0.20134 6.33772 0.0405273 6.49872 0.0405273 6.6973V9.59506C0.0405273 9.79364 0.201524 9.95446 0.399927 9.95446H2.69807V17.2664C2.69807 17.465 2.85888 17.6258 3.05747 17.6258H6.05589C6.25448 17.6258 6.41529 17.4648 6.41529 17.2664V9.95446H9.10235C9.30094 9.95446 9.46175 9.79364 9.46175 9.59506L9.46285 6.6973C9.46285 6.60195 9.4249 6.51064 9.3576 6.44316C9.2903 6.37568 9.19862 6.33772 9.10327 6.33772H6.41529V4.64231C6.41529 3.82742 6.60948 3.41375 7.67099 3.41375L9.21072 3.4132C9.40913 3.4132 9.56994 3.2522 9.56994 3.0538V0.363067C9.56994 0.164847 9.40931 0.00403408 9.21109 0.00366734Z" fill="white"/>
</svg>
