<svg viewBox="0 0 48 48" fill="none" xmlns="http://www.w3.org/2000/svg">
<path fill-rule="evenodd" clip-rule="evenodd" d="M32.4375 29.9064C31.9198 29.9064 31.5 30.3261 31.5 30.8439V37.3126C31.5 39.8973 29.3972 42.0001 26.8125 42.0001H16.6905C16.1729 42.0001 15.7534 42.4195 15.753 42.937L15.7517 44.8009L13.5141 42.5634C13.3692 42.2308 13.0377 42.0001 12.6543 42.0001H6.5625C3.97781 42.0001 1.875 39.8973 1.875 37.3126V22.8751C1.875 20.2904 3.97781 18.1876 6.5625 18.1876H16.0312C16.5489 18.1876 16.9688 17.7679 16.9688 17.2501C16.9688 16.7323 16.5489 16.3126 16.0312 16.3126H6.5625C2.94394 16.3126 0 19.2566 0 22.8751V37.3126C0 40.9312 2.94394 43.8751 6.5625 43.8751H12.1742L16.0246 47.7255C16.2039 47.9049 16.4437 48.0001 16.6877 48.0001C16.8083 48.0001 16.9301 47.9768 17.0459 47.9289C17.3962 47.7839 17.6247 47.4423 17.625 47.0633L17.6273 43.8751H26.8125C30.4311 43.8751 33.375 40.9312 33.375 37.3126V30.8439C33.375 30.3261 32.9552 29.9064 32.4375 29.9064Z" fill="#00A76A"/>
<path d="M34.3739 0.00012207H32.0012C24.4877 0.00012207 18.375 6.11281 18.375 13.6263C18.375 21.1398 24.4877 27.2524 32.0011 27.2524H34.3738C35.5465 27.2524 36.7072 27.1034 37.8322 26.8091L41.3373 30.3121C41.5166 30.4913 41.7562 30.5865 42.0002 30.5865C42.121 30.5865 42.2429 30.5632 42.3589 30.5151C42.7091 30.37 42.9375 30.0282 42.9375 29.649V24.225C44.4215 23.0232 45.6542 21.5052 46.5193 19.8092C47.5019 17.883 48 15.8028 48 13.6263C48 6.11281 41.8873 0.00012207 34.3739 0.00012207ZM41.4359 23.019C41.2009 23.1961 41.0625 23.4734 41.0625 23.7679V27.3867L38.7683 25.0937C38.5898 24.9154 38.3504 24.8193 38.1055 24.8193C38.0137 24.8193 37.9208 24.8329 37.8303 24.8607C36.7144 25.2037 35.5515 25.3775 34.3739 25.3775H32.0012C25.5215 25.3775 20.25 20.1059 20.25 13.6263C20.25 7.14668 25.5216 1.87512 32.0012 1.87512H34.3739C40.8535 1.87512 46.125 7.14668 46.125 13.6263C46.125 17.3511 44.4159 20.7747 41.4359 23.019Z" fill="#00A76A"/>
<path fill-rule="evenodd" clip-rule="evenodd" d="M37.4093 10.2583C37.2741 8.29568 35.6919 6.71356 33.7292 6.57828C32.6166 6.50187 31.5547 6.87715 30.742 7.63587C29.9405 8.38409 29.4808 9.44178 29.4808 10.5378C29.4808 11.0556 29.9006 11.4753 30.4183 11.4753C30.936 11.4753 31.3558 11.0556 31.3558 10.5378C31.3558 9.95103 31.5923 9.40718 32.0214 9.00659C32.4503 8.60637 33.0107 8.40828 33.6004 8.44897C34.6343 8.52022 35.4676 9.35356 35.5388 10.3873C35.6108 11.4314 34.9258 12.3541 33.9101 12.5814C33.0872 12.7655 32.5125 13.4806 32.5125 14.3203V16.5727C32.5125 17.0905 32.9323 17.5102 33.45 17.5102C33.9678 17.5102 34.3875 17.0905 34.3874 16.5727V14.3952C36.2765 13.9389 37.5439 12.2103 37.4093 10.2583Z" fill="#94EB54"/>
<path fill-rule="evenodd" clip-rule="evenodd" d="M34.1128 19.6183C33.9384 19.4439 33.6966 19.3436 33.45 19.3436C33.2034 19.3436 32.9616 19.4439 32.7872 19.6183C32.6128 19.7926 32.5125 20.0345 32.5125 20.2811C32.5125 20.5286 32.6129 20.7704 32.7872 20.9448C32.9616 21.1192 33.2034 21.2186 33.45 21.2186C33.6966 21.2186 33.9384 21.1192 34.1128 20.9448C34.2872 20.7695 34.3875 20.5286 34.3875 20.2811C34.3875 20.0345 34.2871 19.7926 34.1128 19.6183Z" fill="#94EB54"/>
<path fill-rule="evenodd" clip-rule="evenodd" d="M25.7812 29.0626H6C5.48231 29.0626 5.0625 29.4823 5.0625 30.0001C5.0625 30.5179 5.48231 30.9376 6 30.9376H25.7812C26.299 30.9376 26.7188 30.5179 26.7188 30.0001C26.7188 29.4823 26.2989 29.0626 25.7812 29.0626Z" fill="#94EB54"/>
<path fill-rule="evenodd" clip-rule="evenodd" d="M26.444 34.5873C26.2697 34.4129 26.0278 34.3126 25.7812 34.3126C25.5347 34.3126 25.2928 34.4129 25.1184 34.5873C24.944 34.7617 24.8438 35.0036 24.8438 35.2501C24.8438 35.4967 24.9441 35.7386 25.1184 35.9129C25.2928 36.0873 25.5347 36.1876 25.7812 36.1876C26.0278 36.1876 26.2697 36.0873 26.444 35.9129C26.6184 35.7386 26.7188 35.4976 26.7188 35.2501C26.7188 35.0036 26.6183 34.7617 26.444 34.5873Z" fill="#94EB54"/>
<path fill-rule="evenodd" clip-rule="evenodd" d="M22.0938 34.3126H6C5.48231 34.3126 5.0625 34.7323 5.0625 35.2501C5.0625 35.7679 5.48231 36.1876 6 36.1876H22.0938C22.6116 36.1876 23.0313 35.7679 23.0313 35.2501C23.0313 34.7323 22.6115 34.3126 22.0938 34.3126Z" fill="#94EB54"/>
<path fill-rule="evenodd" clip-rule="evenodd" d="M19.6875 23.8126H6C5.48231 23.8126 5.0625 24.2323 5.0625 24.7501C5.0625 25.2679 5.48231 25.6876 6 25.6876H19.6875C20.2053 25.6876 20.625 25.2679 20.625 24.7501C20.625 24.2323 20.2052 23.8126 19.6875 23.8126Z" fill="#94EB54"/>
</svg>
