<svg viewBox="0 0 48 48" fill="none" xmlns="http://www.w3.org/2000/svg">
<path fill-rule="evenodd" clip-rule="evenodd" d="M36.9954 24.3318C36.7489 24.3318 36.5072 24.2314 36.3329 24.0571C36.1582 23.8828 36.0582 23.6411 36.0582 23.3943C36.0582 23.1478 36.1582 22.9061 36.3329 22.7318C36.5072 22.5575 36.7489 22.4572 36.9954 22.4572C37.2422 22.4572 37.4839 22.5575 37.6582 22.7318C37.8325 22.9061 37.9329 23.1478 37.9329 23.3943C37.9329 23.6411 37.8325 23.8828 37.6582 24.0571C37.4839 24.2314 37.2422 24.3318 36.9954 24.3318Z" fill="#94EB54"/>
<path fill-rule="evenodd" clip-rule="evenodd" d="M43.9574 45.6863H4.0426C2.58325 45.6863 1.27661 44.9319 0.547119 43.6685C-0.182373 42.4047 -0.182373 40.8959 0.547119 39.6324L20.5049 5.0647C21.2344 3.80127 22.541 3.04688 24 3.04688C25.459 3.04688 26.7656 3.80127 27.4951 5.0647L35.7708 19.3982C36.0297 19.8464 35.8759 20.4199 35.4276 20.6788C34.979 20.9374 34.4059 20.7839 34.147 20.3357L25.8717 6.0022C25.481 5.32581 24.7811 4.92151 24 4.92151C23.2189 4.92151 22.519 5.32581 22.1283 6.0022L2.1709 40.5696C1.78015 41.2463 1.78015 42.0542 2.1709 42.731C2.56128 43.4077 3.26111 43.8116 4.0426 43.8116H43.9574C44.7389 43.8116 45.4384 43.4077 45.8291 42.731C46.2198 42.0542 46.2198 41.2463 45.8291 40.5696L37.8292 26.7133C37.5703 26.265 37.7241 25.6919 38.1724 25.433C38.6206 25.1741 39.1941 25.3275 39.453 25.7761L47.4529 39.6324C48.1824 40.8959 48.1824 42.4047 47.4529 43.6685C46.723 44.9319 45.4167 45.6863 43.9574 45.6863Z" fill="#00A76A"/>
<path d="M24 31.4088C22.3458 31.4088 21.0004 30.063 21.0004 28.4092V19.949C21.0004 18.2948 22.3458 16.9493 24 16.9493C25.6542 16.9493 26.9996 18.2948 26.9996 19.949V28.4092C26.9996 30.063 25.6542 31.4088 24 31.4088ZM24 18.8243C23.3796 18.8243 22.875 19.329 22.875 19.949V28.4092C22.875 29.0295 23.3796 29.5342 24 29.5342C24.6204 29.5342 25.125 29.0295 25.125 28.4092V19.949C25.125 19.329 24.6204 18.8243 24 18.8243Z" fill="#94EB54"/>
<path d="M24 39.6581C22.3458 39.6581 21.0004 38.3126 21.0004 36.6584C21.0004 35.0043 22.3458 33.6588 24 33.6588C25.6542 33.6588 26.9996 35.0043 26.9996 36.6584C26.9996 37.4597 26.6876 38.213 26.1211 38.7795C25.5546 39.3461 24.8013 39.6581 24 39.6581ZM24 35.5334C23.3796 35.5334 22.875 36.0381 22.875 36.6584C22.875 37.2788 23.3796 37.7834 24 37.7834C24.3003 37.7834 24.583 37.6663 24.7954 37.4539C25.0078 37.2415 25.125 36.9587 25.125 36.6584C25.125 36.0381 24.6204 35.5334 24 35.5334Z" fill="#94EB54"/>
</svg>
