<svg viewBox="0 0 18 18" fill="none" xmlns="http://www.w3.org/2000/svg">
<path fill-rule="evenodd" clip-rule="evenodd" d="M4.93984 0H12.9606C15.6847 0 17.9008 2.21612 17.9007 4.93994V12.9607C17.9007 15.6846 15.6847 17.9007 12.9606 17.9007H4.93984C2.21601 17.9007 0 15.6847 0 12.9607V4.93994C0 2.21612 2.21601 0 4.93984 0ZM12.9607 16.3124C14.8089 16.3124 16.3126 14.8089 16.3126 12.9607H16.3124V4.93994C16.3124 3.09187 14.8088 1.58824 12.9606 1.58824H4.93984C3.09176 1.58824 1.58824 3.09187 1.58824 4.93994V12.9607C1.58824 14.8089 3.09176 16.3126 4.93984 16.3124H12.9607Z" fill="white"/>
<path fill-rule="evenodd" clip-rule="evenodd" d="M4.33789 8.95044C4.33789 6.40704 6.40704 4.33789 8.95044 4.33789C11.4938 4.33789 13.563 6.40704 13.563 8.95044C13.563 11.4937 11.4938 13.5628 8.95044 13.5628C6.40704 13.5628 4.33789 11.4937 4.33789 8.95044ZM5.92613 8.95034C5.92613 10.6179 7.2829 11.9744 8.95044 11.9744C10.618 11.9744 11.9748 10.6179 11.9748 8.95034C11.9748 7.28269 10.6181 5.92602 8.95044 5.92602C7.2828 5.92602 5.92613 7.28269 5.92613 8.95034Z" fill="white"/>
<path d="M13.7565 2.99121C13.4505 2.99121 13.1499 3.11509 12.9338 3.33215C12.7166 3.54815 12.5918 3.84886 12.5918 4.15592C12.5918 4.46202 12.7167 4.76262 12.9338 4.97968C13.1498 5.19568 13.4505 5.32062 13.7565 5.32062C14.0636 5.32062 14.3632 5.19568 14.5803 4.97968C14.7973 4.76262 14.9212 4.46192 14.9212 4.15592C14.9212 3.84886 14.7973 3.54815 14.5803 3.33215C14.3643 3.11509 14.0636 2.99121 13.7565 2.99121Z" fill="white"/>
</svg>
