<svg width="18" height="18" viewBox="0 0 18 18" fill="none" xmlns="http://www.w3.org/2000/svg">
<path fill-rule="evenodd" clip-rule="evenodd" d="M2.18381 0C0.863556 0 0 0.865983 0 2.00478C0 3.11876 0.838572 4.01102 2.13259 4.01102H2.15837C3.50419 4.01102 4.34117 3.11893 4.34117 2.00478C4.31581 0.865983 3.50419 0 2.18381 0ZM18 10.5453V17.2001H14.142V10.991C14.142 9.43128 13.584 8.3668 12.1875 8.3668C11.1215 8.3668 10.4871 9.08418 10.208 9.77812C10.1063 10.0262 10.0801 10.3715 10.0801 10.7188V17.2001H6.22078C6.22078 17.2001 6.27276 6.68401 6.22078 5.59447H10.0797V7.23951C10.076 7.24532 10.0718 7.25135 10.0676 7.25734C10.0629 7.26405 10.0582 7.27072 10.0543 7.27701H10.0797V7.23951C10.5924 6.44986 11.508 5.32182 13.5574 5.32182C16.0965 5.32178 18 6.98055 18 10.5453ZM4.08702 17.2001H0.229207V5.59447H4.08702V17.2001Z" fill="white"/>
</svg>
