<svg viewBox="0 0 48 48" fill="none" xmlns="http://www.w3.org/2000/svg">
<path fill-rule="evenodd" clip-rule="evenodd" d="M26.0687 20.5615C25.7028 20.9274 25.7028 21.5199 26.0687 21.8846C26.4335 22.2505 27.0259 22.2505 27.3918 21.8846C27.7566 21.5199 27.7566 20.9274 27.3918 20.5615C27.0259 20.1968 26.4335 20.1968 26.0687 20.5615Z" fill="#94EB54"/>
<path d="M47.0281 0.925263C46.3958 0.223874 45.4685 -0.109459 44.5347 0.0323536C34.9554 1.45962 27.4988 6.13579 21.3113 13.4881C15.9363 11.6855 11.3976 13.7122 9.24191 20.1789L7.94768 24.0631C7.83474 24.4015 7.92465 24.775 8.17904 25.0254C8.43489 25.2772 8.81025 25.3591 9.14541 25.2414L14.3866 23.4019C14.1158 23.8273 13.8643 24.2162 13.6282 24.5645C12.9301 25.597 12.9857 26.9457 13.7266 27.8946L12.5782 31.3405C12.4663 31.6767 12.5537 32.0473 12.8044 32.2981L15.6553 35.1489C15.9067 35.4004 16.2777 35.4867 16.6129 35.3752L20.057 34.2272C21.0135 34.975 22.3629 35.0188 23.3892 34.3244C23.7375 34.089 24.126 33.8372 24.5515 33.5667L22.7119 38.8079C22.5935 39.1449 22.6772 39.5199 22.9276 39.7743C23.1747 40.0254 23.5471 40.1197 23.8903 40.0057L27.7744 38.7114C33.7298 36.7261 36.1688 32.6424 34.6414 27.2111C34.5869 27.0196 34.5281 26.8295 34.4652 26.6424C41.8172 20.4545 46.4912 13.0017 47.921 3.42124C48.0628 2.48484 47.7295 1.55757 47.0281 0.925263ZM11.0171 20.7707C12.6611 15.8397 15.6966 13.9216 20.0372 15.0612C18.4217 17.1325 17.1016 19.1212 15.9959 20.8536L10.3263 22.8438L11.0171 20.7707ZM16.5698 33.4169L14.5365 31.3836L15.198 29.3986L18.5551 32.7553L16.5698 33.4169ZM22.341 32.7747C21.9473 33.0408 21.4484 33.0024 21.1271 32.6811L15.2719 26.8258C14.951 26.5049 14.913 26.006 15.1783 25.6131C15.6801 24.8715 16.2668 23.9307 16.8088 23.0689L24.8844 31.1446C24.023 31.6862 23.0734 32.2787 22.341 32.7747ZM27.1831 36.9362L25.1096 37.627L27.0997 31.9574C28.8318 30.8522 30.8209 29.5316 32.8918 27.9165C34.0314 32.2579 32.1129 35.2926 27.1831 36.9362ZM32.7412 25.642C30.538 27.4476 28.3826 28.9077 26.5032 30.1168L22.8315 26.445L24.7448 24.532C25.11 24.1665 25.1103 23.574 24.7448 23.2085C24.3793 22.8434 23.7869 22.8434 23.4214 23.2085L21.508 25.1219L17.8362 21.4498C19.0456 19.5704 20.5058 17.4154 22.3113 15.2122C26.466 10.1402 31.0208 6.56744 36.2189 4.30684L43.6465 11.7341C41.3859 16.9322 37.8132 21.4874 32.7412 25.642ZM46.0705 3.14273C45.7364 5.38177 45.2284 7.55721 44.4009 9.84193L38.1114 3.55282C40.3746 2.73301 42.5486 2.22022 44.8128 1.8825C45.3658 1.79807 45.6363 2.19573 45.7565 2.2988C46.0014 2.5086 46.1187 2.82329 46.0705 3.14273Z" fill="#00A76A"/>
<path d="M36.0621 11.8913C34.2649 9.9805 31.2299 9.90301 29.3453 11.7879C27.4766 13.6567 27.5233 16.6925 29.4484 18.5046C31.2576 20.4279 34.2975 20.4776 36.1655 18.6081C38.0343 16.7393 37.9872 13.7034 36.0621 11.8913ZM34.8421 17.285C33.7317 18.3961 31.8958 18.392 30.7971 17.2064C30.781 17.1892 30.7642 17.1727 30.747 17.1567C29.5701 16.0649 29.5482 14.2316 30.6684 13.111C31.773 12.0068 33.6092 11.9977 34.7141 13.1896C34.7299 13.2067 34.7467 13.2236 34.7638 13.2393C35.9444 14.3347 35.959 16.168 34.8421 17.285Z" fill="#94EB54"/>
<path d="M6.74411 36.0554L0.19038 46.4728C-0.0420756 46.8423 0.0120179 47.3237 0.320863 47.6325C0.629708 47.9414 1.11107 47.9955 1.48059 47.763L11.898 41.2093C14.2748 40.1424 14.8592 37.0053 13.0131 35.153C10.8326 32.9246 7.76348 33.7846 6.74411 36.0554ZM11.0943 39.5185C10.9638 39.5737 11.3782 39.3306 3.96268 43.9907C8.65383 36.5258 8.37934 36.9904 8.4349 36.8591C8.9338 35.6793 10.4992 35.301 11.4901 36.2769C11.4934 36.2798 11.4612 36.248 11.6853 36.4721C12.6206 37.4074 12.3132 39.0024 11.0943 39.5185Z" fill="#94EB54"/>
</svg>
