<svg viewBox="0 0 41 48" fill="none" xmlns="http://www.w3.org/2000/svg">
<path d="M39.6834 0H6.81841C6.29041 0 5.86225 0.428062 5.86225 0.956156V33.6778L0.9565 38.5836C-0.255031 39.7951 -0.255031 41.7667 0.9565 42.9783C1.56231 43.5841 2.35816 43.887 3.15391 43.887C3.94966 43.887 4.74559 43.5841 5.35131 42.9783L5.86216 42.4674V47.0438C5.86216 47.5719 6.29031 48 6.81831 48H31.8085C32.0621 48 32.3052 47.8992 32.4846 47.72L40.3593 39.8452C40.5386 39.6659 40.6394 39.4227 40.6394 39.169V0.956156C40.6394 0.428062 40.2114 0 39.6834 0ZM3.99916 41.6259C3.53303 42.0921 2.77478 42.092 2.30884 41.6259C1.84291 41.1599 1.84291 40.4017 2.30884 39.9357L11.4703 30.7743L13.1606 32.4646L3.99916 41.6259ZM32.7632 44.7371L32.7588 40.1193L37.3769 40.1235L32.7632 44.7371ZM38.7272 38.2123L31.8026 38.206C31.8023 38.206 31.802 38.206 31.8017 38.206C31.5482 38.206 31.305 38.3068 31.1256 38.4861C30.9462 38.6655 30.8453 38.9092 30.8456 39.163L30.852 46.0877H7.77466V40.555L15.189 33.1407C15.5624 32.7673 15.5624 32.1619 15.189 31.7885L14.3145 30.914L16.143 29.0855C18.1094 30.7273 20.6384 31.7168 23.3944 31.7168C29.6422 31.7168 34.7252 26.6339 34.7252 20.3861C34.7252 14.1383 29.642 9.05559 23.3943 9.05559C17.1467 9.05559 12.0636 14.1384 12.0636 20.3862C12.0636 23.1909 13.0885 25.7605 14.7827 27.7412L12.9621 29.5617L12.1464 28.746C11.9671 28.5667 11.7239 28.466 11.4703 28.466C11.2167 28.466 10.9735 28.5667 10.7942 28.746L7.77466 31.7655V1.91231H38.7272V38.2123ZM13.976 20.3862C13.976 15.1929 18.2011 10.9679 23.3943 10.9679C28.5876 10.9679 32.8127 15.1929 32.8127 20.3862C32.8127 25.5795 28.5876 29.8045 23.3943 29.8045C18.2011 29.8045 13.976 25.5795 13.976 20.3862Z" fill="#00A76A"/>
<path fill-rule="evenodd" clip-rule="evenodd" d="M28.7967 19.4779H18.0875C17.5595 19.4779 17.1313 19.9059 17.1313 20.434C17.1313 20.9621 17.5595 21.3902 18.0875 21.3902H28.7967C29.3247 21.3902 29.7528 20.9621 29.7528 20.434C29.7528 19.9059 29.3247 19.4779 28.7967 19.4779Z" fill="#94EB54"/>
<path fill-rule="evenodd" clip-rule="evenodd" d="M28.7967 23.207H18.0875C17.5595 23.207 17.1313 23.635 17.1313 24.1631C17.1313 24.6912 17.5595 25.1193 18.0875 25.1193H28.7967C29.3248 25.1193 29.7528 24.6912 29.7528 24.1631C29.7528 23.635 29.3247 23.207 28.7967 23.207Z" fill="#94EB54"/>
<path fill-rule="evenodd" clip-rule="evenodd" d="M22.3903 15.6532H18.0875C17.5595 15.6532 17.1313 16.0812 17.1313 16.6093C17.1313 17.1374 17.5595 17.5655 18.0875 17.5655H22.3903C22.9183 17.5655 23.3464 17.1374 23.3464 16.6093C23.3464 16.0812 22.9183 15.6532 22.3903 15.6532Z" fill="#94EB54"/>
<path fill-rule="evenodd" clip-rule="evenodd" d="M25.8326 15.6532H25.2589C24.7309 15.6532 24.3027 16.0812 24.3027 16.6093C24.3027 17.1374 24.7309 17.5655 25.2589 17.5655H25.8326C26.3606 17.5655 26.7888 17.1374 26.7888 16.6093C26.7888 16.0812 26.3606 15.6532 25.8326 15.6532Z" fill="#94EB54"/>
</svg>
