<svg width="19" height="16" viewBox="0 0 19 16" fill="none" xmlns="http://www.w3.org/2000/svg">
<path d="M19 1.83191C18.2934 2.14259 17.5406 2.34851 16.7556 2.4485C17.5631 1.96523 18.1794 1.2058 18.4692 0.290439C17.7163 0.740382 16.8851 1.0582 15.9992 1.23556C15.2843 0.472559 14.2654 0 13.1539 0C10.9974 0 9.26131 1.75454 9.26131 3.90546C9.26131 4.21494 9.28744 4.51252 9.35156 4.79582C6.11325 4.63751 3.24781 3.08175 1.32288 0.711814C0.986813 1.29626 0.789688 1.96523 0.789688 2.68537C0.789688 4.03758 1.48438 5.23624 2.51988 5.9302C1.89406 5.9183 1.28012 5.73618 0.76 5.44931C0.76 5.46121 0.76 5.47669 0.76 5.49216C0.76 7.38954 2.11019 8.96553 3.88075 9.32858C3.56369 9.41547 3.21812 9.45713 2.8595 9.45713C2.61012 9.45713 2.35837 9.44285 2.12206 9.39048C2.62675 10.9367 4.05888 12.0735 5.76175 12.1104C4.4365 13.1495 2.75381 13.7756 0.932187 13.7756C0.61275 13.7756 0.306375 13.7613 0 13.7221C1.72544 14.8374 3.77031 15.4742 5.9755 15.4742C13.1432 15.4742 17.062 9.5226 17.062 4.36373C17.062 4.19113 17.0561 4.02449 17.0478 3.85903C17.8208 3.3091 18.4704 2.62229 19 1.83191Z" fill="white"/>
</svg>
