<svg width="24" height="18" viewBox="0 0 24 18" fill="none" xmlns="http://www.w3.org/2000/svg">
<path fill-rule="evenodd" clip-rule="evenodd" d="M17.5441 0.22583C20.5987 0.22583 22.1982 0.648637 23.0645 1.68516C23.9349 2.72628 24 4.32096 24 6.63486V10.8169C24 13.4684 23.5845 15 22.6106 15.938C21.661 16.8527 20.1931 17.2258 17.5442 17.2258H6.45569C0.9984 17.2258 0 15.0676 0 10.8169V6.63486C0 4.44073 0 2.8554 0.841471 1.77945C1.70454 0.675909 3.33112 0.22583 6.45569 0.22583H17.5441ZM10.3729 11.9519L15.4081 9.30323C15.6639 9.16874 15.8241 8.90217 15.8237 8.61152C15.8234 8.3211 15.6625 8.05492 15.4063 7.92105L10.3711 5.28946C10.1312 5.164 9.84356 5.17366 9.61231 5.31501C9.38113 5.45637 9.24008 5.70883 9.24008 5.98094V11.2613C9.24008 11.5338 9.38152 11.7865 9.61316 11.9278C9.73618 12.0028 9.87507 12.0405 10.0143 12.0405C10.1372 12.0405 10.2603 12.0111 10.3729 11.9519Z" fill="white"/>
</svg>
