<?xml version="1.0" encoding="UTF-8"?>
<svg width="47px" height="25px" viewBox="0 0 47 25" version="1.1" xmlns="http://www.w3.org/2000/svg" xmlns:xlink="http://www.w3.org/1999/xlink">
    <!-- Generator: Sketch 54.1 (76490) - https://sketchapp.com -->
    <title>BOI brand mark</title>
    <desc>Created with Sketch.</desc>
    <g id="homepage" stroke="none" stroke-width="1" fill="none" fill-rule="evenodd">
        <g id="Artboard" transform="translate(-101.000000, -28.000000)" fill="#FFFFFF">
            <g id="BOI-brand-mark" transform="translate(101.000000, 28.000000)">
                <path d="M23.2926471,23.5231579 C34.1441176,23.5231579 42.9358824,18.5284211 42.9358824,12.3705263 C42.9358824,6.21263158 34.1302941,1.23157895 23.2926471,1.23157895 C12.455,1.23157895 3.59411765,6.22631579 3.59411765,12.3842105 C3.59411765,18.5421053 12.3858824,23.5368421 23.2373529,23.5368421 M0.428529412,12.3978947 C0.428529412,5.55578947 10.6441176,0.0821052632 23.2373529,0.0821052632 C35.8305882,0.0821052632 46.0461765,5.55578947 46.0461765,12.3978947 C46.0461765,19.24 35.8444118,24.7136842 23.2373529,24.7136842 C10.6302941,24.7136842 0.428529412,19.24 0.428529412,12.3978947" id="Shape"/>
                <path d="M23.2926471,9.52421053 C23.6658824,7.43052632 32.8585294,7.14315789 32.8585294,5.00842105 C32.8580899,4.95292473 32.8996706,4.90588292 32.9552941,4.89894737 C32.9835427,4.89866032 33.0105074,4.91060791 33.0291102,4.93165399 C33.047713,4.95270007 33.056096,4.98074273 33.0520588,5.00842105 L33.0520588,7.28 C33.0520588,10.0168421 23.8041176,9.63368421 23.3755882,12.22 C23.3755882,12.22 23.3755882,12.3294737 23.2926471,12.3294737 C23.2097059,12.3294737 23.2235294,12.3294737 23.2097059,12.22 C22.7673529,9.63368421 13.5332353,9.97578947 13.5332353,7.28 L13.5332353,4.99473684 C13.5332353,4.9342762 13.5827473,4.88526316 13.6438235,4.88526316 C13.6994471,4.89219871 13.7410277,4.93924052 13.7405882,4.99473684 C13.7405882,7.14315789 22.9332353,7.43052632 23.3064706,9.51052632" id="Shape"/>
                <path d="M23.2926471,14.1357895 C23.6658824,12.0421053 32.8585294,11.7547368 32.8585294,9.62 C32.8585294,9.56709693 32.9018524,9.52421053 32.9552941,9.52421053 C33.0087358,9.52421053 33.0520588,9.56709693 33.0520588,9.62 L33.0520588,11.8778947 C33.0520588,14.6147368 23.8041176,14.2315789 23.3755882,16.8178947 C23.3755882,16.8178947 23.3755882,16.9273684 23.2926471,16.9273684 C23.2097059,16.9273684 23.2235294,16.9273684 23.2097059,16.8178947 C22.7673529,14.2315789 13.5332353,14.5873684 13.5332353,11.8778947 L13.5332353,9.60631579 C13.5329453,9.5783519 13.5450145,9.55165897 13.5662749,9.53324365 C13.5875352,9.51482833 13.6158634,9.50652979 13.6438235,9.51052632 C13.6972652,9.51052632 13.7405882,9.55341272 13.7405882,9.60631579 C13.7405882,11.7410526 22.9332353,12.0284211 23.3064706,14.1221053" id="Shape"/>
                <path d="M23.2926471,18.8568421 C23.6658824,16.7631579 32.8585294,16.4757895 32.8585294,14.3273684 C32.8585294,14.2744654 32.9018524,14.2315789 32.9552941,14.2315789 C33.0087358,14.2315789 33.0520588,14.2744654 33.0520588,14.3273684 L33.0520588,16.6126316 C33.0520588,19.3494737 23.8041176,18.9526316 23.3755882,21.5526316 C23.3755882,21.5526316 23.3755882,21.6484211 23.2926471,21.6484211 C23.2097059,21.6484211 23.2235294,21.6484211 23.2097059,21.5526316 C22.7673529,18.9526316 13.5332353,19.3084211 13.5332353,16.6126316 L13.5332353,14.3273684 C13.5402415,14.2723055 13.5877622,14.2311439 13.6438235,14.2315789 C13.6945586,14.2375477 13.7345588,14.2771447 13.7405882,14.3273684 C13.7405882,16.4757895 22.9332353,16.7631579 23.3064706,18.8568421" id="Shape"/>
            </g>
        </g>
    </g>
</svg>